<svg version="1.1" id="Layer_1" xmlns="http://www.w3.org/2000/svg" xmlns:xlink="http://www.w3.org/1999/xlink" x="0px" y="0px"
	 width="512px" height="512px" viewBox="0 0 512 512" enable-background="new 0 0 512 512" xml:space="preserve">
<path fill="#387cc6" d="M19.857,157.567c0,3.786,1.894,8.045,4.732,10.885l220.526,220.527c2.839,2.839,7.098,4.731,10.885,4.731
	c3.786,0,8.044-1.894,10.884-4.731l220.527-220.527c2.839-2.84,4.731-7.099,4.731-10.885s-1.894-8.045-4.731-10.884l-23.662-23.662
	c-2.84-2.839-6.625-4.731-10.884-4.731c-3.786,0-8.046,1.893-10.885,4.731L256.002,309L70.021,123.021
	c-2.84-2.839-7.099-4.731-10.884-4.731c-3.787,0-8.046,1.893-10.885,4.731l-23.662,23.662c-2.839,2.839-4.731,7.098-4.731,10.884
	H19.857z"/>
</svg>
